<svg class="svg-icon" style="width: 1em; height: 1em;vertical-align: middle;fill: currentColor;overflow: hidden;" viewBox="0 0 1024 1024" version="1.1" xmlns="http://www.w3.org/2000/svg"><path d="M290.133333 204.8c-6.826667 0-17.066667-6.826667-17.066666-13.653333-6.826667-47.786667 3.413333-88.746667 30.72-122.88C341.333333 23.893333 409.6 0 494.933333 0c10.24 0 17.066667 6.826667 17.066667 17.066667s-6.826667 17.066667-17.066667 17.066666c-75.093333 0-133.12 20.48-163.84 58.026667-23.893333 23.893333-30.72 58.026667-23.893333 92.16 0 10.24-3.413333 17.066667-17.066667 20.48 3.413333 0 0 0 0 0z" fill="" /><path d="M733.866667 204.8s-3.413333 0 0 0c-13.653333-3.413333-17.066667-10.24-17.066667-20.48 3.413333-27.306667-3.413333-54.613333-23.893333-78.506667C655.36 61.44 580.266667 34.133333 494.933333 34.133333c-10.24 0-17.066667-6.826667-17.066666-17.066666s6.826667-17.066667 17.066666-17.066667c95.573333 0 180.906667 30.72 225.28 81.92 27.306667 30.72 37.546667 68.266667 30.72 105.813333-3.413333 10.24-10.24 17.066667-17.066666 17.066667zM221.866667 546.133333c-6.826667 0-13.653333-3.413333-17.066667-10.24L109.226667 300.373333c-3.413333-10.24 0-17.066667 10.24-23.893333 10.24-3.413333 17.066667 0 23.893333 10.24L238.933333 522.24c3.413333 10.24 0 17.066667-10.24 23.893333h-6.826666z" fill="" /><path d="M1006.933333 1024h-136.533333c-6.826667 0-17.066667-6.826667-17.066667-13.653333l-40.96-283.306667-10.24 228.693333c0 6.826667-3.413333 10.24-6.826666 13.653334-3.413333 3.413333-88.746667 54.613333-283.306667 54.613333-191.146667 0-290.133333-34.133333-296.96-34.133333-6.826667-3.413333-10.24-10.24-10.24-17.066667v-204.8l-34.133333 238.933333c0 10.24-10.24 17.066667-17.066667 17.066667h-136.533333c-3.413333 0-10.24-3.413333-13.653334-6.826667-3.413333-3.413333-3.413333-6.826667-3.413333-13.653333L71.68 317.44c3.413333-34.133333 23.893333-68.266667 58.026667-81.92l88.746666-44.373333c13.653333 0 20.48-3.413333 27.306667-6.826667 17.066667-10.24 30.72-13.653333 61.44-13.653333 3.413333 0 10.24 3.413333 13.653333 6.826666l75.093334 78.506667c30.72 34.133333 71.68 51.2 112.64 51.2s85.333333-17.066667 112.64-51.2l68.266666-75.093333c3.413333-3.413333 6.826667-6.826667 13.653334-6.826667 30.72 0 44.373333 3.413333 61.44 13.653333 6.826667 3.413333 13.653333 6.826667 23.893333 10.24L880.64 238.933333c30.72 13.653333 54.613333 47.786667 58.026667 81.92l85.333333 682.666667c0 3.413333 0 10.24-3.413333 13.653333s-10.24 6.826667-13.653334 6.826667z m-122.88-34.133333h102.4L904.533333 327.68c-3.413333-23.893333-17.066667-44.373333-37.546666-54.613333l-88.746667-44.373334c-10.24-3.413333-20.48-6.826667-27.306667-10.24-13.653333-6.826667-20.48-10.24-40.96-10.24L648.533333 279.893333c-34.133333 40.96-85.333333 61.44-139.946666 61.44s-102.4-23.893333-139.946667-61.44L300.373333 204.8c-20.48 0-27.306667 3.413333-40.96 10.24-6.826667 3.413333-17.066667 6.826667-27.306666 10.24L143.36 266.24c-20.48 10.24-34.133333 34.133333-37.546667 54.613333L37.546667 989.866667h102.4L204.8 525.653333c0-6.826667 10.24-13.653333 17.066667-13.653333 10.24 0 17.066667 6.826667 17.066666 17.066667v430.08c30.72 6.826667 122.88 30.72 273.066667 30.72s232.106667-34.133333 256-44.373334L785.066667 546.133333c0-10.24 6.826667-17.066667 17.066666-17.066666s17.066667 6.826667 17.066667 13.653333L884.053333 989.866667z" fill="" /><path d="M324.266667 375.466667c-10.24 0-17.066667-6.826667-17.066667-17.066667 0-17.066667-6.826667-34.133333-17.066667-51.2-17.066667-34.133333-34.133333-71.68 0-126.293333 6.826667-10.24 17.066667-13.653333 27.306667-6.826667 6.826667 3.413333 10.24 13.653333 6.826667 23.893333C296.96 238.933333 307.2 262.826667 320.853333 293.546667c10.24 17.066667 20.48 37.546667 20.48 64.853333 0 10.24-6.826667 17.066667-17.066666 17.066667zM699.733333 375.466667c-3.413333 0-10.24 0-13.653333-3.413334-6.826667-6.826667-6.826667-17.066667 0-23.893333 13.653333-13.653333 10.24-27.306667 3.413333-58.026667-6.826667-27.306667-17.066667-58.026667-6.826666-88.746666 3.413333-10.24 13.653333-13.653333 20.48-10.24 10.24 3.413333 13.653333 13.653333 10.24 20.48-6.826667 23.893333 0 47.786667 6.826666 68.266666 10.24 30.72 20.48 61.44-10.24 92.16 0 3.413333-6.826667 3.413333-10.24 3.413334z" fill="" /><path d="M802.133333 563.2h-6.826666c-10.24-3.413333-13.653333-13.653333-10.24-23.893333l102.4-256c3.413333-10.24 13.653333-13.653333 20.48-10.24 10.24 3.413333 13.653333 13.653333 10.24 23.893333l-102.4 256c0 6.826667-6.826667 10.24-13.653334 10.24z" fill="" /></svg>