<svg class="svg-icon" style="width: 1em; height: 1em;vertical-align: middle;fill: currentColor;overflow: hidden;" viewBox="0 0 1024 1024" version="1.1" xmlns="http://www.w3.org/2000/svg"><path d="M802.133333 512c-10.24 0-17.066667-6.826667-17.066666-17.066667s6.826667-17.066667 17.066666-17.066666c61.44 0 126.293333-20.48 153.6-27.306667-10.24-116.053333-37.546667-300.373333-78.506666-334.506667-47.786667-37.546667-157.013333-68.266667-197.973334-78.506666C662.186667 88.746667 583.68 136.533333 512 136.533333s-150.186667-47.786667-167.253333-98.986666c-40.96 10.24-146.773333 40.96-197.973334 78.506666-40.96 34.133333-68.266667 215.04-78.506666 334.506667 27.306667 6.826667 92.16 27.306667 153.6 27.306667 10.24 0 17.066667 6.826667 17.066666 17.066666s-6.826667 17.066667-17.066666 17.066667c-85.333333 0-174.08-34.133333-177.493334-34.133333-6.826667-3.413333-10.24-10.24-10.24-17.066667 3.413333-30.72 20.48-317.44 92.16-372.053333C194.56 34.133333 348.16 0 354.986667 0c3.413333 0 10.24 0 13.653333 3.413333 3.413333 3.413333 6.826667 10.24 6.826667 13.653334 0 30.72 64.853333 85.333333 136.533333 85.333333s136.533333-54.613333 136.533333-85.333333c0-6.826667 3.413333-10.24 6.826667-13.653334 3.413333-3.413333 10.24-3.413333 13.653333-3.413333 6.826667 0 160.426667 34.133333 228.693334 88.746667s88.746667 337.92 92.16 372.053333c0 6.826667-3.413333 13.653333-10.24 17.066667-3.413333 0-92.16 34.133333-177.493334 34.133333z" fill="" /><path d="M512 1024c-197.973333 0-293.546667-34.133333-296.96-34.133333-6.826667-3.413333-10.24-10.24-10.24-17.066667v-614.4c0-58.026667-10.24-105.813333-30.72-122.88-3.413333-6.826667-3.413333-20.48 0-27.306667s17.066667-6.826667 23.893333 0c34.133333 34.133333 37.546667 109.226667 37.546667 150.186667v600.746667c30.72 6.826667 119.466667 30.72 273.066667 30.72 157.013333 0 245.76-34.133333 273.066666-44.373334V358.4c0-40.96 3.413333-116.053333 37.546667-150.186667 6.826667-6.826667 17.066667-6.826667 23.893333 0s6.826667 17.066667 0 23.893334c-13.653333 20.48-23.893333 68.266667-23.893333 126.293333V955.733333c0 6.826667-3.413333 10.24-10.24 13.653334-3.413333 3.413333-98.986667 54.613333-296.96 54.613333zM512 51.2c-37.546667 0-150.186667-17.066667-157.013333-17.066667-6.826667 0-13.653333-10.24-13.653334-20.48 0-6.826667 10.24-13.653333 20.48-13.653333 0 0 116.053333 17.066667 150.186667 17.066667s150.186667-17.066667 150.186667-17.066667c10.24 0 20.48 6.826667 20.48 13.653333 0 10.24-6.826667 20.48-13.653334 20.48s-119.466667 17.066667-157.013333 17.066667z" fill="" /></svg>